<?xml version="1.0" standalone="no"?>
<!DOCTYPE svg PUBLIC "-//W3C//DTD SVG 20010904//EN"
 "http://www.w3.org/TR/2001/REC-SVG-20010904/DTD/svg10.dtd">
<svg version="1.0" xmlns="http://www.w3.org/2000/svg"
 width="1280.000000pt" height="1034.000000pt" viewBox="0 0 1280.000000 1034.000000"
 preserveAspectRatio="xMidYMid meet">
<g transform="translate(0.000000,1034.000000) scale(0.100000,-0.100000)"
fill="#000000" stroke="none">
<path d="M987 10320 c-273 -50 -450 -142 -638 -329 -145 -145 -224 -272 -283
-453 -29 -90 -66 -287 -66 -353 0 -72 38 -271 70 -367 121 -362 427 -648 797
-745 145 -37 367 -43 512 -13 473 97 817 449 907 926 24 131 15 355 -19 487
-83 315 -311 594 -605 741 -128 64 -390 127 -519 125 -32 -1 -102 -9 -156 -19z"/>
<path d="M3680 9180 l0 -810 4560 0 4560 0 0 810 0 810 -4560 0 -4560 0 0
-810z"/>
<path d="M1005 6319 c-430 -58 -805 -371 -939 -781 -37 -116 -69 -308 -63
-386 26 -364 192 -682 464 -886 206 -155 433 -229 698 -228 524 1 968 350
1106 869 30 112 37 355 14 478 -84 451 -415 802 -860 911 -115 28 -307 39
-420 23z"/>
<path d="M3680 5180 l0 -810 4560 0 4560 0 0 810 0 810 -4560 0 -4560 0 0
-810z"/>
<path d="M925 2280 c-404 -87 -726 -373 -855 -758 -32 -98 -70 -295 -70 -369
0 -56 32 -237 56 -320 86 -296 310 -562 591 -703 138 -69 313 -115 483 -127
81 -6 272 27 392 67 362 121 647 427 745 797 31 121 43 341 23 461 -40 251
-147 462 -324 638 -152 151 -318 247 -524 301 -135 36 -383 42 -517 13z"/>
<path d="M3680 1160 l0 -810 4560 0 4560 0 0 810 0 810 -4560 0 -4560 0 0
-810z"/>
</g>
</svg>
