<?xml version="1.0" standalone="no"?>
<!DOCTYPE svg PUBLIC "-//W3C//DTD SVG 20010904//EN"
 "http://www.w3.org/TR/2001/REC-SVG-20010904/DTD/svg10.dtd">
<svg version="1.0" xmlns="http://www.w3.org/2000/svg"
 width="1193.000000pt" height="1280.000000pt" viewBox="0 0 1193.000000 1280.000000"
 preserveAspectRatio="xMidYMid meet">
<g transform="translate(0.000000,1280.000000) scale(0.100000,-0.100000)"
fill="#000000" stroke="none">
<path d="M6255 12781 c-212 -46 -369 -129 -571 -302 -214 -184 -407 -413 -919
-1089 -574 -759 -808 -1036 -1299 -1539 -829 -848 -1430 -1582 -1990 -2431
-659 -997 -1176 -2071 -1417 -2940 -22 -80 -44 -153 -49 -162 -15 -26 -12 -60
11 -145 59 -219 180 -404 414 -639 676 -677 1959 -1326 3240 -1639 521 -127
989 -191 1485 -202 238 -5 676 7 851 23 l66 7 48 -89 c416 -766 1127 -1322
1955 -1529 317 -79 684 -118 910 -96 413 41 642 89 919 192 428 161 782 389
1107 713 437 438 719 962 843 1567 41 200 76 547 68 676 -47 749 -258 1321
-685 1863 -99 125 -351 376 -481 479 -435 345 -921 554 -1491 644 -115 18
-179 21 -430 21 -257 0 -314 -3 -440 -23 -461 -71 -864 -224 -1246 -472 -156
-101 -161 -102 -275 -64 -238 81 -559 146 -879 176 -163 15 -559 16 -730 0
-667 -59 -1244 -258 -1676 -576 -82 -60 -92 -65 -141 -65 -28 0 -55 4 -58 10
-3 5 12 51 34 102 68 160 166 435 235 653 105 338 146 486 391 1430 227 872
372 1313 578 1756 68 146 149 290 252 444 109 164 179 252 278 354 153 156
285 188 917 226 385 23 451 32 600 85 201 72 299 90 770 145 368 43 466 58
589 90 187 50 303 130 330 228 20 69 10 174 -23 240 -52 108 -148 174 -353
241 -114 38 -163 66 -163 92 0 8 50 67 111 131 131 136 216 261 248 361 19 59
23 87 19 161 -3 75 -9 99 -37 156 -144 292 -656 532 -1509 705 -81 17 -169 35
-195 40 -65 13 -117 11 -212 -9z"/>
</g>
</svg>
